<svg width="102" height="48" viewBox="0 0 102 48" fill="none" xmlns="http://www.w3.org/2000/svg">
<path d="M9.504 35.224C6.90133 35.224 4.8 34.6907 3.2 33.624C1.62133 32.536 0.832 30.9573 0.832 28.888C0.832 28.7173 0.853333 28.4187 0.896 27.992H7.52C7.456 28.7173 7.60533 29.2827 7.968 29.688C8.33067 30.0933 8.88533 30.296 9.632 30.296C10.2507 30.296 10.7413 30.1573 11.104 29.88C11.488 29.6027 11.68 29.208 11.68 28.696C11.68 28.0987 11.4027 27.608 10.848 27.224C10.3147 26.84 9.44 26.392 8.224 25.88C7.008 25.368 6.00533 24.888 5.216 24.44C4.42667 23.9707 3.744 23.3413 3.168 22.552C2.592 21.7413 2.304 20.7387 2.304 19.544C2.304 17.9867 2.688 16.6533 3.456 15.544C4.224 14.4133 5.29067 13.56 6.656 12.984C8.04267 12.3867 9.62133 12.088 11.392 12.088C12.992 12.088 14.4107 12.344 15.648 12.856C16.8853 13.3467 17.8453 14.0613 18.528 15C19.232 15.9387 19.584 17.048 19.584 18.328C19.584 18.6693 19.5733 18.9253 19.552 19.096H12.8C12.8213 18.9893 12.832 18.84 12.832 18.648C12.832 18.136 12.672 17.7413 12.352 17.464C12.032 17.1653 11.5947 17.016 11.04 17.016C10.464 17.016 9.99467 17.1653 9.632 17.464C9.29067 17.7413 9.12 18.136 9.12 18.648C9.12 19.2027 9.38667 19.6827 9.92 20.088C10.4747 20.472 11.328 20.9307 12.48 21.464C13.7173 22.04 14.7307 22.584 15.52 23.096C16.3307 23.5867 17.024 24.248 17.6 25.08C18.176 25.912 18.464 26.936 18.464 28.152C18.464 29.496 18.1013 30.712 17.376 31.8C16.6507 32.8667 15.616 33.7093 14.272 34.328C12.928 34.9253 11.3387 35.224 9.504 35.224ZM30.3308 12.44L26.3628 35H20.0588L24.0588 12.44H30.3308Z" fill="black"/>
<path d="M59.9185 12.44L55.9185 35H49.6785L51.8865 22.52L45.3905 35H40.1425L38.0945 22.456L35.8865 35H29.5825L33.5825 12.44H41.1665L44.2705 27.064L52.3665 12.44H59.9185ZM78.7693 23.672C79.1533 21.4533 79.9639 19.48 81.2013 17.752C82.4386 16.0027 83.9959 14.648 85.8733 13.688C87.7506 12.7067 89.7986 12.216 92.0173 12.216C93.8733 12.216 95.4946 12.5573 96.8813 13.24C98.2679 13.9227 99.3453 14.8933 100.113 16.152C100.881 17.4107 101.297 18.8933 101.361 20.6H94.6093C94.3533 19.768 93.9053 19.128 93.2653 18.68C92.6253 18.232 91.8359 18.008 90.8973 18.008C89.4466 18.008 88.1986 18.52 87.1533 19.544C86.1079 20.568 85.4359 21.944 85.1373 23.672C85.0519 24.12 85.0093 24.6 85.0093 25.112C85.0093 26.4347 85.3506 27.48 86.0333 28.248C86.7373 28.9947 87.6973 29.368 88.9133 29.368C89.8519 29.368 90.7159 29.144 91.5053 28.696C92.3159 28.248 92.9879 27.608 93.5213 26.776H100.305C99.2813 29.3573 97.6706 31.4053 95.4733 32.92C93.2759 34.4133 90.7693 35.16 87.9533 35.16C86.0119 35.16 84.3266 34.7867 82.8973 34.04C81.4893 33.2933 80.4119 32.2373 79.6653 30.872C78.9186 29.5067 78.5453 27.928 78.5453 26.136C78.5453 25.304 78.6199 24.4827 78.7693 23.672Z" fill="#008C64"/>
<path d="M61.36 17.46L62.2 12H79L77.74 17.46H61.36Z" fill="#FFCC29"/>
<path d="M59.6801 25.92L60.5201 20.46H77.3201L76.0601 25.92H59.6801Z" fill="#008C64"/>
<path d="M58 34.38L58.84 28.92H75.64L74.38 34.38H58Z" fill="black"/>
</svg>
